<svg width="184" height="33" viewBox="0 0 184 33" fill="none" xmlns="http://www.w3.org/2000/svg">
<path d="M18.7283 4.89817V0L13.8301 0V4.89817L18.7283 4.89817Z" fill="#72AC0D"/>
<path d="M11.8132 4.89817L11.8132 0L6.91506 0L6.91506 4.89817L11.8132 4.89817Z" fill="#72AC0D"/>
<path d="M25.9315 11.8132V6.91507L20.7452 6.91507V11.8132H25.9315Z" fill="#A7D000"/>
<path d="M25.9315 19.0164V13.8301L20.7452 13.8301V19.0164H25.9315Z" fill="#A7D000"/>
<path d="M25.9315 25.9315V21.0333H20.7452V25.9315H25.9315Z" fill="#A7D000"/>
<path d="M18.7283 11.8132V6.91507L13.8301 6.91507V11.8132H18.7283Z" fill="#72AC0D"/>
<path d="M18.7283 19.0164V13.8301L13.8301 13.8301V19.0164H18.7283Z" fill="#72AC0D"/>
<path d="M18.7283 25.9315V21.0333H13.8301V25.9315H18.7283Z" fill="#72AC0D"/>
<path d="M18.7283 32.8466V27.9484H13.8301V32.8466H18.7283Z" fill="#72AC0D"/>
<path d="M11.8132 11.8132L11.8132 6.91507L6.91506 6.91507L6.91506 11.8132H11.8132Z" fill="#72AC0D"/>
<path d="M11.8132 19.0164L11.8132 13.8301L6.91506 13.8301L6.91506 19.0164H11.8132Z" fill="#72AC0D"/>
<path d="M11.8132 25.9315L11.8132 21.0333H6.91506L6.91506 25.9315H11.8132Z" fill="#72AC0D"/>
<path d="M11.8132 32.8466L11.8132 27.9484H6.91506L6.91506 32.8466H11.8132Z" fill="#72AC0D"/>
<path d="M4.89816 11.8132L4.89816 6.91507L-8.58307e-06 6.91507L-8.58307e-06 11.8132H4.89816Z" fill="#2C8F0D"/>
<path d="M4.89816 19.0164L4.89816 13.8301L-8.58307e-06 13.8301L-8.58307e-06 19.0164H4.89816Z" fill="#2C8F0D"/>
<path d="M4.89816 25.9315L4.89816 21.0333H-8.58307e-06L-8.58307e-06 25.9315H4.89816Z" fill="#2C8F0D"/>
<rect x="46" y="11" width="2.4" height="12" fill="white"/>
<path d="M67.5387 10.0844L62.5712 23.1669H65.1497L68.4867 14.2557L71.7858 23.1669H74.3644L69.4347 10.0844H67.5387Z" fill="white"/>
<path d="M90.9734 14.3694C90.9734 11.9425 89.1153 10.0844 86.6505 10.0844H81.6071V12.4355H86.6505C87.7881 12.4355 88.5465 13.2318 88.5465 14.3315C88.5465 15.2795 87.9019 16.2275 86.6505 16.2275H81.6071V23.129H83.9582V18.5786H86.3851L88.9636 23.129H91.6939L88.812 18.0477C90.1392 17.3272 90.9734 15.9242 90.9734 14.3694Z" fill="white"/>
<path d="M101.97 17.7823H103.335L107.203 23.1669H110.161L105.307 16.493L109.668 10.0844H106.748L103.184 15.4312H101.97V10.0844H99.6193V23.1669H101.97V17.7823Z" fill="white"/>
<path d="M50.2471 10.0845H46V12.4355H50.1712C52.674 12.4355 54.4183 14.1419 54.4183 16.6068C54.4183 19.1095 52.7119 20.778 50.1712 20.778H48.9578H48.389H46V23.167H50.2471C54.077 23.167 56.8452 20.3988 56.8452 16.6068C56.8452 12.8527 54.077 10.0845 50.2471 10.0845Z" fill="white"/>
<path d="M156.879 17.0618L150.963 10.0844H150.015V23.2807H152.366V15.507L156.538 20.3988H157.182L161.353 15.507V23.2807H163.742V10.0844H162.756L156.879 17.0618Z" fill="white"/>
<path fill-rule="evenodd" clip-rule="evenodd" d="M183.006 10.1603H172.805V12H172.8V22H172.805V23.2807H183.12V20.8917H175V17.896H182.475V15.545H175V12.5114H183.006V10.1603Z" fill="white"/>
<path d="M139.739 10.1603H137.388V23.2428H139.739V10.1603Z" fill="white"/>
<path d="M121.461 10.1603H119.11V23.2807H128.742V20.8917H121.461V10.1603Z" fill="white"/>
<path d="M81.6 11H84V18H81.6V11Z" fill="white"/>
<rect x="71" y="18" width="2" height="5" transform="rotate(90 71 18)" fill="white"/>
</svg>
